PathFileType	4	(x/y/z)	S08_P20_T14
DataRate	CameraRate	NumFrames	NumMarkers	Units	OrigDataRate	OrigDataStartFrame	OrigNumFrames
240	240	6	51	mm	240	99	394
Frame#	Time	Sternum			R.Acromium			L.Acromium			Top.Head			R.ASIS			L.ASIS			R.PSIS			L.PSIS			R.Great.Tro			L.Great.Tro			R.Iliac.Crest			L.Iliac.Crest			V.Sacral			R.Thigh.Upper.Post			R.Thigh.Lower.Ant			R.Thigh.Lower.Post			R.Thigh.Upper.Ant			R.Knee.Lat			R.Knee.Med			R.Shank.Upper.Post			R.Shank.Lower.Ant			R.Shank.Lower.Post			R.Shank.Upper.Ant			R.Ankle.Lat			R.Ankle.Med			R.Heel.Upper			R.Heel.Med			R.Heel.Lat			R.Toe.Lat			R.Toe.Med			R.Toe.Tip			L.Thigh.Upper.Post			L.Thigh.Lower.Ant			L.Thigh.Lower.Post			L.Thigh.Upper.Ant			L.Knee.Lat			L.Knee.Med			L.Shank.Upper.Post			L.Shank.Lower.Ant			L.Shank.Lower.Post			L.Shank.Upper.Ant			L.Ankle.Lat			L.Ankle.Med			L.Heel.Upper			L.Heel.Med			L.Heel.Lat			L.Toe.Lat			L.Toe.Med			L.Toe.Tip			Cervical.Spine			Back			
		X1	Y1	Z1	X2	Y2	Z2	X3	Y3	Z3	X4	Y4	Z4	X5	Y5	Z5	X6	Y6	Z6	X7	Y7	Z7	X8	Y8	Z8	X9	Y9	Z9	X10	Y10	Z10	X11	Y11	Z11	X12	Y12	Z12	X13	Y13	Z13	X14	Y14	Z14	X15	Y15	Z15	X16	Y16	Z16	X17	Y17	Z17	X18	Y18	Z18	X19	Y19	Z19	X20	Y20	Z20	X21	Y21	Z21	X22	Y22	Z22	X23	Y23	Z23	X24	Y24	Z24	X25	Y25	Z25	X26	Y26	Z26	X27	Y27	Z27	X28	Y28	Z28	X29	Y29	Z29	X30	Y30	Z30	X31	Y31	Z31	X32	Y32	Z32	X33	Y33	Z33	X34	Y34	Z34	X35	Y35	Z35	X36	Y36	Z36	X37	Y37	Z37	X38	Y38	Z38	X39	Y39	Z39	X40	Y40	Z40	X41	Y41	Z41	X42	Y42	Z42	X43	Y43	Z43	X44	Y44	Z44	X45	Y45	Z45	X46	Y46	Z46	X47	Y47	Z47	X48	Y48	Z48	X49	Y49	Z49	X50	Y50	Z50	X51	Y51	Z51	

99	0.40833	NaN	NaN	NaN	-955.48	1471.3	472.63	-974.54	1499.9	138.48	-947.87	1790.6	322.75	-872.29	1024.8	405.02	-874.92	1023.6	174.24	-1076.9	1042.6	336.1	-1073.9	1047.2	242.91	-963.52	1079	455.91	-973.61	916.34	112.16	-921.84	926.27	477.95	-971.21	1103.7	148.71	-1091.3	1004.7	290.18	-852.05	722.39	462.23	-740.97	665.22	427.1	-808.56	644.01	440.37	-779.34	750.4	447.74	-739.07	564.36	423.75	-767.85	558.25	299.78	-806.02	383.11	436.42	-748.97	317.35	414.75	-810.57	306.45	431.31	-744.14	395.07	422.61	-824.33	140.57	399.5	-791.73	152.74	323.06	-872.22	103.98	351.1	-857.86	77.055	324.59	-868.35	78.799	385.15	-736.28	63.244	441.98	-672.18	77.333	323.05	-611.4	93.857	372.27	-1019.3	714.82	135.08	-944.05	616.36	163.29	-1012.6	625.49	155.36	-947.57	701.99	136.37	-1018.7	522.52	181.29	-1012.5	525.52	306.45	-1105.2	352.89	187.56	-1054.7	256.93	214.7	-1119.8	282.21	206.47	-1046.7	329.87	194.69	-1127.1	107.22	234.1	-1103.9	109.96	319.09	-1181.3	78.972	283.48	-1170.5	43.551	312.09	-1175.5	54.522	248.84	-1000.5	40.083	214.07	-981.87	39.152	329.54	-916.85	53.23	280.43	-1029.1	1529	300.7	-1079.4	1247.9	306.51
100	0.4125	NaN	NaN	NaN	-950.12	1470.5	472.57	-968.97	1499.2	138.39	-942.53	1789.9	322.78	-866.82	1024.3	404.97	-869.74	1022.8	174.17	-1071.3	1041.9	336.34	-1068.5	1046.6	243.16	-956.56	1073.1	456.75	-968.74	915.84	112.24	-917.7	931.02	477.28	-965.98	1103	148.77	-1085.9	1004	290.44	-847.35	721.53	462.17	-736.5	664.06	426.93	-804.11	643.02	440.35	-774.6	749.34	447.55	-734.24	563.54	423.42	-763.62	556.92	299.68	-796.73	380.73	436.29	-738.11	316.46	414.05	-799.33	303.97	431	-735.24	394.34	422.18	-808.68	137.57	398.74	-776.48	150.76	322.18	-855.81	99.836	350.41	-840.73	73.311	323.8	-851.07	74.701	384.43	NaN	NaN	NaN	-655.21	78.546	321.6	-594.68	96.635	370.61	-1016.1	715.04	135.12	-941.51	615.96	163.05	-1009.9	625.69	155.26	-944.43	701.64	136.16	-1016.9	522.59	181.22	-1010.2	525.41	306.38	-1104.2	353.36	187.68	-1054	257.13	214.58	-1119.3	282.5	206.83	-1045.9	329.97	194.65	-1126.9	107.63	234.33	-1103.5	110.19	319.23	-1181.1	79.189	283.78	-1170.4	43.747	312.37	-1175.4	54.746	249.13	-1000.5	40.044	214.07	-981.74	39.127	329.51	-916.73	53.062	280.37	-1023.7	1528.3	300.53	-1073.9	1247.1	306.35
101	0.41667	NaN	NaN	NaN	-944.77	1469.7	472.51	-963.4	1498.5	138.31	-937.19	1789.1	322.81	-861.33	1023.7	404.92	-864.54	1022.1	174.1	-1065.8	1041.3	336.59	-1063	1045.9	243.43	-949.31	1066.1	457.74	-963.9	915.32	112.31	-913.83	936.74	476.46	-960.73	1102.2	148.84	-1080.5	1003.4	290.72	-842.7	720.6	462.19	-732.11	662.81	426.78	-799.73	641.96	440.39	-769.93	748.2	447.38	-729.48	562.64	423.11	-759.48	555.52	299.59	-787.55	378.42	436.15	-727.42	315.66	413.37	-788.23	301.6	430.68	-726.49	393.63	421.75	-793.21	134.79	397.97	-761.46	148.96	321.27	-839.59	95.925	349.72	-823.79	69.807	322.99	-833.95	70.844	383.69	NaN	NaN	NaN	-638.56	79.976	320.08	-578.3	99.61	368.87	-1012.8	715.24	135.15	-938.92	615.53	162.81	-1007.1	625.86	155.18	-941.25	701.28	135.95	-1015	522.64	181.14	-1007.9	525.3	306.32	-1103.1	353.83	187.79	-1053.3	257.32	214.45	-1118.9	282.8	207.19	-1045	330.07	194.62	-1126.6	108.06	234.55	-1103.1	110.43	319.36	-1181	79.435	284.07	-1170.2	43.971	312.65	-1175.3	54.99	249.41	-1000.5	40.002	214.07	-981.61	39.107	329.47	-916.61	52.894	280.31	-1018.2	1527.6	300.36	-1068.4	1246.4	306.21
102	0.42083	NaN	NaN	NaN	-939.42	1468.9	472.47	-957.83	1497.7	138.24	-931.84	1788.3	322.85	-855.81	1023.1	404.86	-859.32	1021.3	174.04	-1060.2	1040.6	336.85	-1057.5	1045.2	243.72	-941.76	1058.1	458.9	-959.07	914.79	112.38	-910.25	943.47	475.49	-955.47	1101.4	148.91	-1075.1	1002.7	290.99	-838.11	719.6	462.28	-727.79	661.49	426.65	-795.4	640.82	440.49	-765.31	746.99	447.25	-724.79	561.65	422.81	-755.42	554.04	299.49	-778.5	376.18	436.01	-716.91	314.92	412.69	-777.3	299.34	430.35	-717.89	392.95	421.31	-777.95	132.21	397.19	-746.72	147.34	320.34	-823.58	92.244	349.02	-807.09	66.539	322.17	-817.04	67.226	382.95	NaN	NaN	NaN	-622.27	81.605	318.51	-562.29	102.76	367.06	-1009.4	715.41	135.19	-936.27	615.1	162.56	-1004.3	625.99	155.11	-938.03	700.9	135.74	-1013.1	522.68	181.08	-1005.4	525.16	306.26	-1101.9	354.3	187.89	-1052.6	257.49	214.34	-1118.3	283.1	207.56	-1044.1	330.15	194.59	-1126.3	108.52	234.75	-1102.7	110.7	319.48	-1180.8	79.712	284.33	-1170.1	44.228	312.91	-1175.3	55.256	249.68	-1000.5	39.954	214.08	-981.49	39.091	329.43	-916.49	52.726	280.25	-1012.8	1526.8	300.19	-1062.9	1245.5	306.08
103	0.425	NaN	NaN	NaN	-934.06	1468	472.43	-952.27	1496.9	138.19	-926.49	1787.5	322.9	-850.27	1022.4	404.81	-854.08	1020.4	173.97	-1054.7	1039.9	337.12	-1052	1044.5	244.02	-933.9	1048.9	460.21	-954.25	914.24	112.43	-906.95	951.23	474.37	-950.17	1100.7	148.99	-1069.6	1001.9	291.27	-833.54	718.54	462.45	-723.51	660.1	426.53	-791.11	639.63	440.64	-760.71	745.72	447.15	-720.16	560.6	422.52	-751.45	552.51	299.4	-769.58	374.02	435.86	-706.62	314.26	412.02	-766.55	297.2	430.01	-709.44	392.29	420.87	-762.94	129.83	396.39	-732.27	145.91	319.38	-807.82	88.791	348.32	-790.66	63.503	321.35	-800.37	63.847	382.18	NaN	NaN	NaN	-606.36	83.412	316.89	-546.67	106.06	365.2	-1005.9	715.55	135.24	-933.53	614.65	162.3	-1001.4	626.1	155.06	-934.76	700.49	135.54	-1011	522.7	181.02	-1002.9	524.99	306.21	-1100.7	354.79	187.99	-1051.8	257.65	214.23	-1117.8	283.42	207.91	-1043.1	330.22	194.58	-1126	109	234.92	-1102.3	110.98	319.6	-1180.7	80.022	284.57	-1169.9	44.518	313.15	-1175.2	55.547	249.93	-1000.5	39.901	214.08	-981.36	39.078	329.38	-916.37	52.556	280.19	-1007.4	1526	300.04	-1057.4	1244.7	305.96
104	0.42917	NaN	NaN	NaN	-928.71	1467.1	472.4	-946.71	1496.1	138.14	-921.14	1786.7	322.95	-844.7	1021.7	404.77	-848.81	1019.6	173.92	-1049.1	1039.2	337.39	-1046.4	1043.8	244.33	-925.74	1038.7	461.67	-949.43	913.67	112.49	-903.92	959.98	473.11	-944.86	1099.8	149.07	-1064.2	1001.2	291.55	-828.99	717.43	462.67	-719.27	658.66	426.43	-786.85	638.38	440.83	-756.15	744.4	447.08	-715.57	559.48	422.25	-747.54	550.95	299.31	-760.82	371.93	435.7	-696.54	313.66	411.36	-756.02	295.17	429.64	-701.16	391.64	420.43	-748.22	127.65	395.57	-718.15	144.65	318.41	-792.35	85.564	347.59	-774.54	60.694	320.5	-784	60.703	381.41	NaN	NaN	NaN	-590.86	85.369	315.24	-531.49	109.48	363.31	-1002.4	715.64	135.3	-930.72	614.18	162.05	-998.47	626.16	155.03	-931.43	700.06	135.34	-1008.8	522.7	180.98	-1000.2	524.8	306.16	-1099.3	355.27	188.07	-1050.9	257.79	214.13	-1117.1	283.75	208.26	-1042.1	330.27	194.58	-1125.7	109.5	235.07	-1101.9	111.29	319.7	-1180.5	80.366	284.78	-1169.8	44.845	313.38	-1175.1	55.866	250.17	-1000.5	39.842	214.08	-981.24	39.069	329.34	-916.25	52.383	280.13	-1001.9	1525.1	299.89	-1051.9	1243.8	305.86
